<svg xmlns="http://www.w3.org/2000/svg" viewBox="0 0 36 36"><defs><style>.cls-1{fill:#d76127;}.cls-2{fill:#fff;fill-rule:evenodd;}</style></defs><g id="Layer_2" data-name="Layer 2"><g id="Layer_1-2" data-name="Layer 1"><circle class="cls-1" cx="18" cy="18" r="18"/><path class="cls-2" d="M20.47,13a11.61,11.61,0,0,0,0-1.77A2.36,2.36,0,0,0,20,9.93,2.41,2.41,0,0,0,15.7,11a11.71,11.71,0,0,0,0,1.78c.07,1.24.8,1.37.83,1.88a1.67,1.67,0,0,1-.13.75c-.52,1.18-2.17,1.28-2.75,2.68a6.48,6.48,0,0,0,.08,3.15c.26,1.54.6,3,1,4.47a1.31,1.31,0,0,0,.77,1,13.23,13.23,0,0,0,3.43.19c.92,0,2.31.11,2.6-1a58.13,58.13,0,0,0,1.21-6c.39-3.26-1.95-2.88-2.8-4.36a1.65,1.65,0,0,1-.21-.69c0-.44.05-.45.25-.66A2.31,2.31,0,0,0,20.47,13Z"/><path class="cls-2" d="M24,19.11a11.93,11.93,0,0,1-.3,2.39c-.25,1.38-.56,2.8-.89,4.15a1.37,1.37,0,0,1-.41.86c-.35.36-.61.3-.83.43l1,0c2.58,0,2.4-.52,2.9-2.75a35.17,35.17,0,0,0,.84-4.58A2.63,2.63,0,0,0,25,16.87c-.58-.41-2-1-1.73-2.3,0-.12.23-.31.3-.41a3.93,3.93,0,0,0,.52-2.74,2.41,2.41,0,0,0-3.56-2.11,2.55,2.55,0,0,1,1.23,2.14,4,4,0,0,1-.5,2.68c-.06.08-.27.3-.29.34a1.48,1.48,0,0,0,.13,1.08C21.78,16.84,24,16.87,24,19.11Z"/><path class="cls-2" d="M14.24,11.42a2.55,2.55,0,0,1,1.23-2.11,2.42,2.42,0,0,0-3.56,2.21,5.16,5.16,0,0,0,.22,2.17,3.11,3.11,0,0,0,.55.76c.17.24,0,.87-.11,1.09-.58,1.09-2.15,1.27-2.68,2.53-.43,1-.08,2.56.12,3.62a41.67,41.67,0,0,0,1.07,4.59c.44.66,1.14.69,2.12.69l1.2,0-.08-.05a2.44,2.44,0,0,1-.41-.16c-.5-.28-.59-.59-.72-1.19s-.33-1.38-.49-2.09A22.39,22.39,0,0,1,12,19c.07-1.7,1.35-2.05,2.32-2.8.6-.46.95-1.42.67-1.78-.1-.12-.18-.19-.3-.34A4.14,4.14,0,0,1,14.24,11.42Z"/></g></g></svg>